<?xml version="1.0" encoding="UTF-8"?>
<svg width="23px" height="23px" viewBox="0 0 23 23" version="1.1" xmlns="http://www.w3.org/2000/svg" xmlns:xlink="http://www.w3.org/1999/xlink">
    <!-- Generator: Sketch 54.1 (76490) - https://sketchapp.com -->
    <title>compliance</title>
    <desc>Created with Sketch.</desc>
    <g id="Symbols" stroke="none" stroke-width="1" fill="none" fill-rule="evenodd">
        <g id="Menu-/-Resources" transform="translate(-54.000000, -80.000000)" fill="#083741" fill-rule="nonzero">
            <g id="Compliance" transform="translate(40.000000, 59.000000)">
                <path d="M33.166667,21.0000006 L17.8333335,21.0000006 L17.8333334,21.0000006 C15.7162472,21.0000007 14,22.7162478 14,24.8333339 C14,24.8333339 14,24.8333339 14,24.8333339 L14,40.1666672 L14,40.1666667 C13.9999997,42.2837528 15.7162472,44 17.8333334,44 L33.1666668,44 L33.1666666,44 C35.2837528,44.0000001 37,42.2837528 37,40.1666667 L37,24.8333333 L37,24.8333333 C37,22.7162472 35.2837528,21 33.1666666,21 L33.166667,21.0000006 Z M30.7483221,29.843527 L25.1672889,36.5632047 L25.1672889,36.5632047 C24.9367287,36.8378681 24.5804829,36.9991505 24.2025151,36.9999837 L24.2025151,36.9999837 L24.2025151,36.9999837 C23.8266441,37.0018405 23.4707794,36.8448622 23.2377413,36.5744041 L20.2579336,33.0913712 L20.2579335,33.0913711 C19.8431357,32.6027329 19.9388193,31.8982475 20.4716492,31.5178466 C21.0044791,31.1374512 21.7726772,31.225199 22.1874811,31.7138372 L24.1780904,34.0433254 L28.7943498,28.4435941 L28.7943498,28.4435941 C29.2057757,27.9487705 29.9767131,27.8535011 30.5162878,28.2308043 C31.0558626,28.6081075 31.159748,29.3151049 30.7483221,29.8099286 C30.7483221,29.8099286 30.748322,29.8099286 30.748322,29.8099286 L30.7483221,29.843527 Z" id="compliance"></path>
            </g>
        </g>
    </g>
</svg>