<?xml version="1.0" encoding="UTF-8"?>
<svg width="24px" height="26px" viewBox="0 0 24 26" version="1.1" xmlns="http://www.w3.org/2000/svg" xmlns:xlink="http://www.w3.org/1999/xlink">
    <!-- Generator: Sketch 54.1 (76490) - https://sketchapp.com -->
    <title>webinars</title>
    <desc>Created with Sketch.</desc>
    <g id="Symbols" stroke="none" stroke-width="1" fill="none" fill-rule="evenodd">
        <g id="Menu-/-Resources" transform="translate(-53.000000, -211.000000)" fill="#083741" fill-rule="nonzero">
            <g id="Webinars" transform="translate(40.000000, 191.000000)">
                <path d="M31,22.4999994 L33,22.4999994 C35.209139,22.4999994 37,24.2908604 37,26.4999994 L37,41.4999994 C37,43.7091384 35.209139,45.4999994 33,45.4999994 L17,45.4999994 C14.790861,45.4999994 13,43.7091384 13,41.4999994 L13,26.4999994 C13,24.2908604 14.790861,22.4999994 17,22.4999994 L19,22.4999994 L19,21 C19,20.4477153 19.4477153,20 20,20 C20.5522847,20 21,20.4477153 21,21 L21,22.4999994 L29,22.4999994 L29,21 C29,20.4477153 29.4477153,20 30,20 C30.5522847,20 31,20.4477153 31,21 L31,22.4999994 Z M31,24.4999994 L31,26 C31,26.5522847 30.5522847,27 30,27 C29.4477153,27 29,26.5522847 29,26 L29,24.4999994 L21,24.4999994 L21,26 C21,26.5522847 20.5522847,27 20,27 C19.4477153,27 19,26.5522847 19,26 L19,24.4999994 L17,24.4999994 C15.8954305,24.4999994 15,25.3954299 15,26.4999994 L15,31.4999994 L35,31.4999994 L35,26.4999994 C35,25.3954299 34.1045695,24.4999994 33,24.4999994 L31,24.4999994 Z M20,39 C20.552285,39 21,38.552285 21,38 C21,37.447715 20.552285,37 20,37 C19.447715,37 19,37.447715 19,38 C19,38.552285 19.447715,39 20,39 Z M25,38 C25,38.5522847 25.4477153,39 26,39 L30,39 C30.5522848,39 31,38.5522847 31,38 C31,37.4477153 30.5522848,37 30,37 L26,37 C25.4477153,37 25,37.4477153 25,38 Z" id="webinars"></path>
            </g>
        </g>
    </g>
</svg>