<?xml version="1.0" encoding="UTF-8"?>
<svg width="25px" height="25px" viewBox="0 0 25 25" version="1.1" xmlns="http://www.w3.org/2000/svg" xmlns:xlink="http://www.w3.org/1999/xlink">
    <!-- Generator: Sketch 54.1 (76490) - https://sketchapp.com -->
    <title>departments</title>
    <desc>Created with Sketch.</desc>
    <g id="Symbols" stroke="none" stroke-width="1" fill="none" fill-rule="evenodd">
        <g id="Menu-/-Resources" transform="translate(-52.000000, -278.000000)" fill="#083741">
            <g id="Departments" transform="translate(40.000000, 257.000000)">
                <path d="M15.5,21 C17.4329917,21.0000002 19,22.5670085 19,24.5 C19,26.4329917 17.4329917,27.9999999 15.5,28 C13.5670083,28 12.0000001,26.4329917 12,24.5 C12,22.5670083 13.5670083,21.0000001 15.5,21 Z M24.5,21 C26.4329917,21.0000002 28,22.5670085 28,24.5 C28,26.4329917 26.4329917,27.9999999 24.5,28 C22.5670083,28 21.0000001,26.4329917 21,24.5 C21,22.5670083 22.5670083,21.0000001 24.5,21 Z M33.5,28 C31.5670083,27.9999996 29.9999997,26.4329913 30,24.5 C30,22.5670083 31.5670083,20.9999999 33.5,21 C35.4329917,21 37.0000001,22.5670083 37,24.5 C37,26.4329917 35.4329917,28.0000001 33.5,28 Z M15.5,30 C17.4329917,30.0000002 19,31.5670085 19,33.5 C19,35.4329917 17.4329917,36.9999999 15.5,37 C13.5670083,37 12.0000001,35.4329917 12,33.5 C12,31.5670083 13.5670083,30.0000001 15.5,30 Z M24.5,30 C26.4329917,30.0000002 28,31.5670085 28,33.5 C28,35.4329917 26.4329917,36.9999999 24.5,37 C22.5670083,37 21.0000001,35.4329917 21,33.5 C21,31.5670083 22.5670083,30.0000001 24.5,30 Z M33.5,30 C35.4329917,30.0000002 37,31.5670085 37,33.5 C37,35.4329917 35.4329917,36.9999999 33.5,37 C31.5670083,37 30.0000001,35.4329917 30,33.5 C30,31.5670083 31.5670083,30.0000001 33.5,30 Z M15.5,39 C17.4329917,39.0000002 19,40.5670085 19,42.5 C19,44.4329917 17.4329917,45.9999999 15.5,46 C13.5670083,46 12.0000001,44.4329917 12,42.5 C12,40.5670083 13.5670083,39.0000001 15.5,39 Z M24.5,39 C26.4329917,39.0000002 28,40.5670085 28,42.5 C28,44.4329917 26.4329917,45.9999999 24.5,46 C22.5670083,46 21.0000001,44.4329917 21,42.5 C21,40.5670083 22.5670083,39.0000001 24.5,39 Z M33.4999998,39 C35.4329915,39.0000002 36.9999998,40.5670085 36.9999998,42.5 C36.9999998,44.4329917 35.4329915,45.9999999 33.4999998,46 C31.5670082,46 29.9999999,44.4329917 29.9999998,42.5 C29.9999998,40.5670083 31.5670082,39.0000001 33.4999998,39 Z" id="departments"></path>
            </g>
        </g>
    </g>
</svg>