<?xml version="1.0" encoding="UTF-8"?>
<svg width="110px" height="28px" viewBox="0 0 110 28" version="1.1" xmlns="http://www.w3.org/2000/svg" xmlns:xlink="http://www.w3.org/1999/xlink">
    <!-- Generator: Sketch 50.2 (55047) - http://www.bohemiancoding.com/sketch -->
    <title>logos/logo-washington</title>
    <desc>Created with Sketch.</desc>
    <defs></defs>
    <g id="Home" stroke="none" stroke-width="1" fill="none" fill-rule="evenodd">
        <g id="Home-/-Big" transform="translate(-754.000000, -1378.000000)" fill="#083741">
            <g id="logos/logo-washington" transform="translate(754.000000, 1378.000000)">
                <path d="M10.4037163,6.60107499 C10.4037163,8.07228052 11.6397045,9.19518812 13.1612024,9.19518812 C14.6082726,9.19518812 16.0400911,8.11835168 16.0400911,6.60107499 L16.0400911,0.818837983 L16.7929093,0.0460711543 L14.4728385,0.0460711543 L15.2409082,0.818837983 L15.2409082,6.60107499 C15.2409082,7.63245457 14.4270838,8.45190683 13.4021774,8.45190683 C12.3632396,8.45190683 11.4438742,7.6484259 11.4438742,6.60107499 L11.4438742,0.818837983 L12.2119439,0.0460711543 L9.6350365,0.0460711543 L10.4037163,0.818837983 L10.4037163,6.60107499 Z M20.7863836,8.22400819 L20.7863836,1.51727668 L25.5784309,9.01397492 L25.8651607,9.01397492 L25.8651607,0.818837983 L26.6326203,0.0460711543 L24.3131596,0.0460711543 L25.0806193,0.818837983 L25.0806193,6.50954697 L21.0731134,0.0460711543 L19.2343826,0.0460711543 L19.9878108,0.818837983 L19.9878108,8.22400819 L19.2343826,8.99800358 L21.5556735,8.99800358 L20.7863836,8.22400819 Z M29.4364712,0.0460711543 L30.1441447,0.758638341 L30.1441447,8.2854364 L29.4364712,8.99800358 L31.8315798,8.99800358 L31.1239063,8.2854364 L31.1239063,0.758638341 L31.8315798,0.0460711543 L29.4364712,0.0460711543 Z M36.7145265,0.0460711543 L34.1980153,0.0460711543 L34.9209404,0.758638341 L37.42342,8.99800358 L37.8748669,8.99800358 L40.4523843,0.758638341 L41.1753094,0.0460711543 L39.0352073,0.0460711543 L39.7288493,0.74328129 L37.8449738,6.93401587 L36.0214946,0.74328129 L36.7145265,0.0460711543 Z M48.6186917,8.99800358 L48.6186917,7.35909905 L47.6700433,8.33027899 L44.9723434,8.33027899 L44.9723434,4.5671871 L46.9764013,4.5671871 L47.6846848,5.28036857 L47.6846848,3.18689532 L46.9764013,3.90007679 L44.9723434,3.90007679 L44.9723434,0.713795751 L47.6700433,0.713795751 L48.6186917,1.66900435 L48.6186917,0.0460711543 L43.3001599,0.0460711543 L43.9925817,0.758638341 L43.9925817,8.2854364 L43.3001599,8.99800358 L48.6186917,8.99800358 Z M52.9897953,8.2854364 L52.9897953,4.82518556 L54.3301044,4.82518556 L56.4854581,8.99800358 L57.9624213,8.99800358 L57.2687793,8.2854364 L55.279973,4.61264397 C56.2743762,4.30918864 56.9533766,3.36872281 56.9533766,2.51917072 C56.9533766,1.00127975 55.5514511,0.0460711543 54.0738778,0.0460711543 L51.3163917,0.0460711543 L52.0094236,0.758638341 L52.0094236,8.2854364 L51.3163917,8.99800358 L53.6974688,8.99800358 L52.9897953,8.2854364 Z M52.9897953,0.713795751 L54.0738778,0.713795751 C55.0237464,0.713795751 55.7771746,1.53324802 55.7771746,2.50381367 C55.7771746,3.42892245 55.0084948,4.15746097 54.0738778,4.15746097 L52.9897953,4.15746097 L52.9897953,0.713795751 Z M64.7884196,6.50954697 C64.7884196,5.62928078 64.3815074,5.08318403 63.9593436,4.79508574 L62.151116,3.4749936 C61.5032287,3.00506783 61.1719644,2.39754287 61.1719644,1.94235987 C61.1719644,1.00127975 61.9705372,0.667724597 62.4524872,0.667724597 C62.7087138,0.667724597 62.8899026,0.773995393 63.0247266,0.773995393 L63.808658,1.62416176 L64.637734,0.379626312 L62.8752611,0.0460711543 C62.7538585,0.0153570514 62.6788207,0 62.4524872,0 C60.8998761,0 60.1922027,1.33544919 60.1922027,2.20035833 C60.1922027,2.8828257 60.5393287,3.65743537 61.3372915,4.24837471 L63.1601607,5.56908114 C63.6579723,5.91799335 63.7934064,6.43399027 63.7934064,6.87381623 C63.7934064,7.63245457 63.326708,8.45190683 62.3170532,8.45190683 C62.0760782,8.45190683 61.8649963,8.40583568 61.6990591,8.33027899 L60.8547315,7.32899923 L60.0860517,8.72526235 L61.7899585,9.05881751 C61.7899585,9.05881751 62.0760782,9.11963143 62.3170532,9.11963143 C63.3864942,9.11963143 64.7884196,8.20926542 64.7884196,6.50954697 Z M67.7417361,0.0460711543 L68.4494095,0.758638341 L68.4494095,8.2854364 L67.7417361,8.99800358 L70.1374547,8.99800358 L69.4297813,8.2854364 L69.4297813,0.758638341 L70.1374547,0.0460711543 L67.7417361,0.0460711543 Z M76.1801317,8.2854364 L76.1801317,0.713795751 L77.8681769,0.713795751 L78.8174354,1.66900435 L78.8174354,0.0460711543 L72.5636765,0.0460711543 L72.5636765,1.66900435 L73.5287966,0.713795751 L75.2009801,0.713795751 L75.2009801,8.2854364 L74.5073382,8.99800358 L76.8884152,8.99800358 L76.1801317,8.2854364 Z M81.2436572,0.758638341 L83.4893002,4.84054262 L83.4893002,8.2854364 L82.7816268,8.99800358 L85.1767353,8.99800358 L84.4684518,8.2854364 L84.4684518,4.84054262 L86.7586294,0.773995393 L87.4974161,0.0460711543 L85.2975278,0.0460711543 L85.9905597,0.74328129 L84.1219358,4.09726133 L82.3436013,0.74328129 L83.0372433,0.0460711543 L80.5201221,0.0460711543 L81.2436572,0.758638341 Z M94.7382575,3.34722293 C94.4137038,3.34722293 93.9012506,3.49772204 93.3894075,3.79994881 C92.5273881,4.31594574 91.5909409,5.48492449 91.5909409,7.24545687 C91.5909409,8.12572306 92.0033437,9.10734579 93.1642941,9.10734579 C93.7133511,9.10734579 94.5009428,8.74246225 95.0255973,8.26516509 C95.8497928,7.50959816 96.3366233,6.21469158 96.3366233,5.09485539 C96.3366233,4.05119017 95.7875664,3.34722293 94.7382575,3.34722293 Z M92.6018158,6.9432301 C92.6018158,5.08318403 93.538873,4.07637574 93.9256531,3.91297671 C94.0385149,3.86260558 94.2142131,3.81223445 94.338666,3.81223445 C94.9627608,3.81223445 95.3251384,4.29014589 95.3251384,5.2588687 C95.350151,6.89285897 94.5009428,8.3775787 93.9762884,8.55326337 C93.876238,8.59196314 93.7133511,8.64171999 93.5888982,8.64171999 C92.8903757,8.64171999 92.6018158,7.88738162 92.6018158,6.9432301 Z M98.2150082,3.64883542 L99.0263924,3.64883542 C99.2008705,2.63035577 99.5254242,1.67453289 100.012865,1.08359355 C100.537519,0.455183005 101.299488,0.0264141285 102.023633,0.0264141285 C102.448848,0.0264141285 102.785603,0.304069619 102.773401,0.55531098 C102.773401,0.730995649 102.623326,0.932480164 102.523275,1.0203225 C102.398822,1.12106476 102.260948,1.12106476 102.173709,1.03322242 C101.89796,0.768466854 101.586828,0.61796775 101.211639,0.61796775 C100.674783,0.61796775 100.362431,1.32254927 99.9878522,3.64883542 L101.461765,3.64883542 L101.186627,3.97563348 L99.9134245,4.1015613 C99.7011225,5.48492449 99.6010721,6.01259278 99.513223,6.54148963 C99.0263924,9.38377272 98.4517128,10.6031226 98.0271087,11.1326337 C97.489643,11.7979012 96.8899507,12 96.6532462,12 C96.4409442,12 96.1157804,11.8740722 96.1157804,11.6222165 C96.1157804,11.4840031 96.2286421,11.3083184 96.3286925,11.1940619 C96.4031202,11.1191195 96.5281832,11.0312772 96.6782588,11.1062196 C96.8411457,11.1817763 97.0778502,11.2948042 97.2279258,11.2948042 C97.3401775,11.2948042 97.4652404,11.2579473 97.5402782,11.1817763 C97.7769828,10.9809061 98.0649327,10.151011 98.4016876,7.79892501 C98.6390022,6.21469158 98.7890778,5.23368313 98.9513547,4.1015613 L97.9148571,4.1015613 L97.8770332,3.97563348 L98.2150082,3.64883542 Z M4.97826816,27.7296171 L4.36558659,27.7296171 L0.979553073,16.4467654 L0,15.469757 L3.40692737,15.469757 L2.46916201,16.4261112 L4.93709497,24.9043665 L7.2427933,17.2566623 L6.99821229,16.4467654 L6.03893855,15.469757 L9.44586592,15.469757 L8.50748603,16.4261112 L10.9760335,24.9043665 L13.5269274,16.4261112 L12.587933,15.469757 L15.485419,15.469757 L14.5064804,16.4467654 L11.0172067,27.7296171 L10.4051397,27.7296171 L7.73256983,18.8576793 L4.97826816,27.7296171 Z M16.9449162,26.7738888 L17.8839106,27.7296171 L14.9864246,27.7296171 L15.9653631,26.7325803 L19.7803352,15.469757 L20.3936313,15.469757 L24.1465363,26.7325803 L25.1064246,27.7296171 L21.6982682,27.7296171 L22.6372626,26.7738888 L21.8008939,24.1770867 L17.8224581,24.1770867 L16.9449162,26.7738888 Z M19.8417877,18.1917363 L18.1284916,23.262041 L21.4954749,23.262041 L19.8417877,18.1917363 Z M33.0036872,24.3222923 C33.0036872,26.6499633 31.105419,27.8961029 29.6575978,27.8961029 C29.3306704,27.8961029 28.9441341,27.81286 28.9441341,27.81286 L26.6384358,27.355963 L27.6782123,25.4445064 L28.8206145,26.8151973 C29.0461453,26.9190944 29.3306704,26.9823089 29.6575978,26.9823089 C31.0243017,26.9823089 31.6572626,25.859469 31.6572626,24.8211237 C31.6572626,24.2183952 31.4735196,23.5111437 30.8,23.0335925 L28.3314525,21.226033 C27.2498883,20.4155102 26.7810056,19.3558848 26.7810056,18.4201848 C26.7810056,17.2366339 27.7396648,15.4077942 29.8413408,15.4077942 C30.1479888,15.4077942 30.2493855,15.4284485 30.4116201,15.469757 L32.7990503,15.9272798 L31.6769274,17.6315681 L30.616257,16.4674197 C30.432514,16.4674197 30.187933,16.3215882 29.8413408,16.3215882 C29.1881006,16.3215882 28.1065363,16.779111 28.1065363,18.0678109 C28.1065363,18.6905677 28.5563687,19.5223705 29.4332961,20.1657816 L31.8815642,21.9733412 C32.4524581,22.3689013 33.0036872,23.1168354 33.0036872,24.3222923 Z M38.1239106,21.5790328 L38.1239106,26.7532346 L39.0831844,27.7296171 L35.86,27.7296171 L36.7983799,26.7532346 L36.7983799,16.4467654 L35.86,15.469757 L39.0831844,15.469757 L38.1239106,16.4467654 L38.1239106,20.6652389 L43.1832961,20.6652389 L43.1832961,16.4467654 L42.2252514,15.469757 L45.4687151,15.469757 L44.5100559,16.4467654 L44.5100559,26.7532346 L45.4687151,27.7296171 L42.2252514,27.7296171 L43.1832961,26.7532346 L43.1832961,21.5790328 L38.1239106,21.5790328 Z M57.359162,26.6699917 L58.3995531,27.7296171 L55.257486,27.7296171 L56.2769832,26.6699917 L56.2769832,16.5300083 L55.257486,15.469757 L57.7469274,15.469757 L63.1737989,24.3222923 L63.1737989,16.5300083 L62.1334078,15.469757 L65.2754749,15.469757 L64.2350838,16.5300083 L64.2344693,27.7277395 L63.7612849,27.72461 L57.359162,17.4857366 L57.359162,26.6699917 Z M74.5455866,22.161107 L73.5869274,21.1840986 L76.8101117,21.1840986 L75.8717318,22.161107 L75.8717318,27.0023373 C75.2184916,27.4392059 74.4232961,27.8961029 72.5674302,27.8961029 C69.2821788,27.8961029 66.9758659,24.8417779 66.9758659,21.6003129 C66.9758659,18.2962594 69.2821788,15.3038971 72.5674302,15.3038971 C73.9341341,15.3038971 74.6482123,15.6362427 75.3622905,16.0105227 L75.3622905,18.1291477 L74.0355307,16.8003912 C73.627486,16.3635226 73.1788827,16.218317 72.5674302,16.218317 C70.240838,16.218317 68.5478212,18.9402963 68.5478212,21.6003129 C68.5478212,24.2390494 69.8942458,26.9823089 72.5674302,26.9823089 C73.6889385,26.9823089 74.2610615,26.4002347 74.5455866,26.1091976 L74.5455866,22.161107 Z M83.3228492,26.7532346 L84.2815084,27.7296171 L81.0577095,27.7296171 L81.9967039,26.7532346 L81.9967039,16.3841768 L79.7321788,16.3841768 L78.4256983,17.6935309 L78.4256983,15.469757 L86.8932402,15.469757 L86.8932402,17.6935309 L85.6082682,16.3841768 L83.3228492,16.3841768 L83.3228492,26.7532346 Z M88.1044693,21.6003129 C88.1044693,18.4827735 89.8386592,15.2 92.9192737,15.2 C96.0201676,15.2 97.7549721,18.4827735 97.7549721,21.6003129 C97.7549721,24.7166007 96.0201676,28 92.9192737,28 C89.8386592,28 88.1044693,24.7166007 88.1044693,21.6003129 Z M92.9192737,27.0649259 C95.3472626,27.0649259 96.1842458,24.1345264 96.1842458,21.6003129 C96.1842458,19.0648477 95.3472626,16.1344482 92.9192737,16.1344482 C90.5127933,16.1344482 89.6758101,19.0648477 89.6758101,21.6003129 C89.6758101,24.1345264 90.5127933,27.0649259 92.9192737,27.0649259 Z M102.083687,26.6699917 L103.125307,27.7296171 L99.9820112,27.7296171 L101.002737,26.6699917 L101.002737,16.5300083 L99.9820112,15.469757 L102.472067,15.469757 L107.898324,24.3222923 L107.898324,16.5300083 L106.857933,15.469757 L110,15.469757 L108.959609,16.5300083 L108.959609,27.7365019 L108.45324,27.7365019 L102.083687,17.4857366 L102.083687,26.6699917 Z M48.4762774,15.4 L51.6879562,15.4 L50.738263,16.3767805 L50.738263,26.6808454 L51.6879562,27.6570002 L48.4762774,27.6570002 L49.4259706,26.6808454 L49.4259706,16.3767805 L48.4762774,15.4 Z" id="logo-washington"></path>
            </g>
        </g>
    </g>
</svg>