<?xml version="1.0" encoding="UTF-8"?>
<svg width="99px" height="30px" viewBox="0 0 99 30" version="1.1" xmlns="http://www.w3.org/2000/svg" xmlns:xlink="http://www.w3.org/1999/xlink">
    <!-- Generator: Sketch 50.2 (55047) - http://www.bohemiancoding.com/sketch -->
    <title>logos/logo-cornell</title>
    <desc>Created with Sketch.</desc>
    <defs></defs>
    <g id="Home" stroke="none" stroke-width="1" fill="none" fill-rule="evenodd">
        <g id="Home-/-Big" transform="translate(-489.000000, -1377.000000)" fill="#083741">
            <g id="logos/logo-cornell" transform="translate(489.000000, 1377.000000)">
                <path d="M45.3598328,13.2712294 C44.6175557,13.7172807 43.3494772,13.9603448 42.5696429,13.9603448 C39.4998602,13.9603448 37.4243011,12.2078889 37.4243011,9.31297961 C37.4243011,7.84470576 38.001222,6.68143313 38.9844914,5.87729165 C39.9448092,5.08564169 41.2509665,4.65 42.6844011,4.65 C43.8737137,4.65 45.0259906,4.95916507 45.6420337,5.1762052 C45.5131915,5.77579807 45.39739,6.45138101 45.39739,7.11395195 L45.0025174,7.11395195 L45.0025174,6.19738681 C45.0025174,5.84085806 44.4902783,5.62225649 43.8997951,5.40417541 C43.4924034,5.26364583 42.9410422,5.19025816 42.4674037,5.19025816 C40.0606107,5.19025816 38.7935755,6.93594781 38.7935755,9.108431 C38.7935755,11.6374429 40.4721754,13.2712294 43.0052025,13.2712294 C43.9248333,13.2712294 45.0134716,12.9407247 45.6029116,12.505083 L45.7166265,12.6326005 L45.3598328,13.2712294 Z M45.690713,11.0362137 C45.690713,9.13286282 46.9029029,7.8 48.9791396,7.8 C50.6315043,7.8 51.9099571,9.07027981 51.9099571,10.6943346 C51.9099571,12.6344077 50.5037116,14.0055445 48.5284469,14.0055445 C46.9029029,14.0541627 45.690713,12.7864689 45.690713,11.0362137 Z M46.8881778,10.4890003 C46.8881778,11.823932 47.3804163,13.5834971 49.0333069,13.5834971 C50.2071064,13.5834971 50.7093369,12.4321767 50.7093369,11.2503406 C50.7093369,9.61387268 49.9220708,8.22049572 48.6851639,8.22049572 C47.3141534,8.22049572 46.8881778,9.30871589 46.8881778,10.4890003 Z M53.5498493,9.6679129 C53.5498493,9.24811502 53.5256198,8.9580631 53.4561622,8.84976276 C53.3791664,8.74735996 53.2467123,8.70661329 52.9683431,8.70661329 L52.4816009,8.70661329 L52.4816009,8.33882103 C53.2590962,8.26215296 54.0522059,8.00855859 54.5421787,7.8 L54.6590184,7.85093333 L54.6590184,9.18163362 L54.6864784,9.18163362 L55.3999003,8.33882103 C55.7164981,7.95762526 56.1633963,7.8 56.5090694,7.8 C56.7335954,7.8 57.0125029,7.86487298 57.118574,7.94422175 L56.9985037,9.52208273 L56.7195961,9.52208273 C56.574758,9.20844064 56.2980042,8.919461 55.8214922,8.919461 C55.2426782,8.919461 54.6590184,9.52208273 54.6590184,10.363823 L54.6590184,12.6279436 C54.6590184,12.9839408 54.6719407,13.2455773 54.7263223,13.3881906 C54.7763965,13.5056053 54.9745393,13.5629724 55.2803685,13.5736952 L55.9679456,13.6133696 L55.9679456,14.0068966 C55.2803685,13.9945653 54.7510902,13.9682944 54.1022801,13.9682944 C53.4561622,13.9682944 52.9268839,13.9945653 52.4541409,14.0068966 L52.4541409,13.6133696 L53.0631071,13.5736952 C53.283864,13.5629724 53.429779,13.5056053 53.4836222,13.3881906 C53.5369269,13.2455773 53.5498493,12.9839408 53.5498493,12.6279436 L53.5498493,9.6679129 Z M59.2418523,12.6279436 C59.2418523,12.9839408 59.2543911,13.2455773 59.3050688,13.3881906 C59.3594036,13.5056053 59.4973303,13.5629724 59.7162369,13.5736952 L60.2924991,13.6133696 L60.2924991,14.0068966 C59.8442371,13.9945653 59.3322362,13.9682944 58.7037289,13.9682944 C58.076789,13.9682944 57.5632207,13.9945653 57.1133913,14.0068966 L57.1133913,13.6133696 L57.6917433,13.5736952 C57.9090825,13.5629724 58.0511889,13.5056053 58.0997768,13.3881906 C58.1530666,13.2455773 58.1656054,12.9839408 58.1656054,12.6279436 L58.1656054,9.6679129 C58.1656054,9.24811502 58.1368707,8.9580631 58.076789,8.84976276 C57.9984215,8.74735996 57.8698988,8.70661329 57.5997922,8.70661329 L57.1259301,8.70661329 L57.1259301,8.33882103 C57.8834825,8.26215296 58.6514839,8.00855859 59.1243011,7.8 L59.2418523,7.85093333 L59.2418523,8.97039433 L59.2674524,8.97039433 L60.215699,8.12919016 C60.4983444,7.87934877 60.7418061,7.8 61.253807,7.8 C62.7542832,7.8 63.3692068,8.6535354 63.3692068,10.0887831 L63.3692068,12.6279436 C63.3692068,12.9839408 63.3822681,13.2455773 63.4329457,13.3881906 C63.4841458,13.5056053 63.6267746,13.5629724 63.8430689,13.5736952 L64.369176,13.6133696 L64.369176,14.0068966 C64.0483917,13.9945653 63.6769298,13.9682944 63.3190516,13.9682944 C62.9611734,13.9682944 62.5870993,13.9945653 62.29296,14.0068966 L62.29296,10.2742876 C62.29296,9.18163362 61.6900527,8.60260207 60.8175613,8.60260207 C60.0385885,8.60260207 59.2418523,9.29958449 59.2418523,9.8394778 L59.2418523,12.6279436 Z M69.961313,10.1217663 C69.961313,10.2986923 69.961313,10.4776877 69.9362782,10.656683 C69.1997545,10.7808416 68.4512141,10.8325744 67.7146904,10.8325744 L65.9201962,10.8325744 C65.9201962,12.3193739 66.6331872,13.3354053 68.1427854,13.3354053 C68.7351087,13.3354053 69.1997545,13.0296647 69.6664031,12.7373746 L69.8266258,12.8646372 L69.5797827,13.2945364 C69.493663,13.4487001 68.4512141,14.0068966 67.616554,14.0068966 C65.7619763,14.0068966 64.7786096,12.7875554 64.7786096,11.0741664 C64.7786096,9.84189204 65.0965515,9.10935616 65.6618372,8.64945192 C65.8956621,8.45855804 66.1545219,8.27076812 66.4223942,8.14143622 C66.8544948,7.93916112 67.2109903,7.8 67.6285707,7.8 C68.9669309,7.8 69.961313,8.68825149 69.961313,10.1217663 Z M65.9447303,10.3261107 C66.9506284,10.4388881 67.9830634,10.415091 68.8672924,10.3633583 C68.8672924,9.18436866 68.4512141,8.22058734 67.5679865,8.22058734 C66.6206698,8.22058734 65.8831448,8.9396727 65.9447303,10.3261107 Z M71.0700105,6.00518803 C71.0700105,5.71207591 71.0339701,5.48039758 70.760368,5.48039758 L70.064434,5.48039758 L70.064434,5.12324853 C70.7222973,5.02068532 71.3821909,4.90718897 72.0060443,4.65 L72.1167033,4.75308384 L72.1167033,12.6212962 C72.1167033,12.9669915 72.1283784,13.2210567 72.1796471,13.3595431 C72.2304081,13.47356 72.3649249,13.529267 72.5776137,13.5396795 L73.1486755,13.5782058 L73.1486755,13.9603448 C72.7024859,13.9483704 72.2029971,13.9228598 71.5943721,13.9228598 C70.9857471,13.9228598 70.4862584,13.9483704 70.0390535,13.9603448 L70.0390535,13.5782058 L70.6111306,13.5396795 C70.8228041,13.529267 70.9593514,13.47356 71.01062,13.3595431 C71.0578278,13.2210567 71.0700105,12.9669915 71.0700105,12.6212962 L71.0700105,6.00518803 Z M75.1309481,6.00518803 C75.1309481,5.71207591 75.0909122,5.48039758 74.8197832,5.48039758 L74.1214358,5.48039758 L74.1214358,5.12324853 C74.782788,5.02068532 75.4405926,4.90718897 76.0608953,4.65 L76.173908,4.75308384 L76.173908,12.6212962 C76.173908,12.9669915 76.1870844,13.2210567 76.2367491,13.3595431 C76.2848935,13.47356 76.4222318,13.529267 76.6340672,13.5396795 L77.2067323,13.5782058 L77.2067323,13.9603448 C76.7567088,13.9483704 76.2610747,13.9228598 75.6504009,13.9228598 C75.0412474,13.9228598 74.5461202,13.9483704 74.0971103,13.9603448 L74.0971103,13.5782058 L74.668255,13.5396795 C74.8805972,13.529267 75.0159083,13.47356 75.0676002,13.3595431 C75.1177717,13.2210567 75.1309481,12.9669915 75.1309481,12.6212962 L75.1309481,6.00518803 Z M39.9195909,24.6588802 C40.2796547,24.7486346 40.6533455,24.7589512 41.0003066,24.7589512 C42.055865,24.7589512 43.622431,24.7233589 43.8420333,24.5206378 C43.9704403,24.4066394 44.0490569,23.9769532 44.111426,23.7118167 L44.2644663,23.0783777 L44.6800859,23.0783777 C44.5993728,23.7732004 44.5118464,24.6217405 44.4070243,25.2531162 C43.8420333,25.2660119 42.8263073,25.3026358 41.8766192,25.2907717 C40.7188593,25.2783918 39.8692763,25.2531162 39.0721043,25.2531162 C38.6328998,25.2531162 38.3126683,25.2783918 37.9798582,25.2907717 L37.9798582,25.0013912 L38.3760857,24.7997018 C38.5967361,24.6872509 38.6994618,24.3978703 38.6994618,24.0543277 L38.6994618,18.0536794 C38.6994618,17.572926 38.6743045,17.2438266 38.5831093,17.1045525 C38.5050168,16.9792059 38.3535489,16.9286546 38.0432755,16.915243 L37.4243011,16.8796507 L37.4243011,16.5 C38.0946384,16.5247598 38.6994618,16.5381714 39.3289184,16.5381714 C39.9195909,16.5381714 40.5265107,16.5247598 41.1952756,16.5 L41.1952756,16.8796507 L40.575253,16.915243 C40.2676002,16.9286546 40.1114153,16.9792059 40.0369916,17.1045525 C39.9436999,17.2438266 39.9195909,17.572926 39.9195909,18.0536794 L39.9195909,24.6588802 Z M48.8801139,21.5358044 C48.8933437,20.530162 48.386908,19.8811229 47.244914,19.8811229 C46.68503,19.8811229 46.5035175,19.9342452 46.3331181,20.1525201 C46.2563854,20.254557 46.1923533,20.4118202 46.114033,20.5790766 L45.9446919,20.9793349 L45.6086557,20.890973 L45.6086557,20.0499572 L46.2960747,19.6376017 C46.8517252,19.3041408 47.3867372,19.2 47.8010937,19.2 C49.4272973,19.2 49.9173281,19.9074211 49.9173281,21.7651245 L49.9173281,24.1267011 C49.9173281,24.3339308 49.9326747,24.5427383 49.9596634,24.6821187 C49.9829478,24.8099279 50.1020158,24.8630502 50.2829991,24.8772512 L50.7904931,24.9024975 L50.7904931,25.2875028 C50.4645115,25.2748797 50.1380007,25.2491075 49.8136067,25.2491075 C49.4775705,25.2491075 49.1515889,25.2748797 48.8150235,25.2875028 L48.8801139,24.1945504 L47.2692568,25.2996 C47.164477,25.3795464 46.9088778,25.4068966 46.6696835,25.4068966 C45.7880514,25.4068966 45.0895194,24.8909263 45.0895194,23.8437327 C45.0895194,22.3626192 46.4013837,21.9855033 47.5957676,21.7651245 L48.8801139,21.5358044 Z M48.8801139,21.94553 C48.2307967,22.0386256 47.6465699,22.1417145 46.9834937,22.3978587 C46.5299771,22.5777383 46.2045247,23.1321039 46.2045247,23.6117828 C46.2045247,24.2713411 46.6982598,24.6721254 47.2173961,24.6721254 C47.6216979,24.6721254 48.0355252,24.3986243 48.4625823,24.0762086 C48.6726711,23.9215753 48.827724,23.7290726 48.8801139,23.6496521 L48.8801139,21.94553 Z M55.6082824,19.2 L55.9075835,19.2 C56.0214022,19.5774967 56.1531368,19.915117 56.279602,20.2564591 L57.7676763,24.0394014 C57.9747631,23.5034625 58.1939695,22.9669918 58.3905176,22.4214825 L59.0339094,20.5940794 C59.2441579,20.0219858 59.0997768,19.7471044 58.6218436,19.7221152 L58.1802691,19.6955309 L58.1802691,19.3302629 C58.6070893,19.3424917 59.0233707,19.3696077 59.4480831,19.3696077 C59.8754302,19.3696077 60.288023,19.3424917 60.7153701,19.3302629 L60.7153701,19.6955309 L60.3818181,19.7221152 C60.0830439,19.7471044 59.8754302,20.0980168 59.55189,20.856732 L58.6729566,22.8909608 C58.3241233,23.6980593 58.078043,24.572682 57.7813767,25.4068966 L57.1859362,25.4068966 L55.4264886,20.9460552 C55.20939,21.4304207 54.961202,21.9248882 54.7567498,22.4081903 L53.4889359,25.4068966 L52.8808489,25.4068966 L51.5619218,21.0252763 C51.226262,19.9284091 51.0323487,19.7471044 50.7088085,19.7221152 L50.3499634,19.6955309 L50.3499634,19.3302629 C50.8658361,19.3424917 51.3706432,19.3696077 51.8870429,19.3696077 C52.4029157,19.3696077 52.9082497,19.3424917 53.4246494,19.3302629 L53.4246494,19.6955309 L52.9082497,19.7221152 C52.468256,19.7471044 52.3254557,19.8885327 52.468256,20.3617328 L53.5532224,23.9617754 C53.7234235,23.6076728 53.8635891,23.2567604 54.0195629,22.9047846 L55.6082824,19.2 Z M68.3502365,18.3870876 L68.2729393,17.6587326 C68.2353496,17.3145992 68.1834652,17.1865253 67.7016816,16.8944545 C67.3390203,16.6752712 66.7921165,16.5878061 66.2865084,16.5878061 C65.3785316,16.5878061 64.3651978,17.1865253 64.3651978,18.4506039 C64.3651978,19.3190072 64.8835122,19.8536895 66.5046347,20.0327847 C68.3401773,20.2254161 69.4948696,20.6710714 69.4948696,22.1272608 C69.4948696,24.3112846 67.5084388,25.3603448 65.5712451,25.3603448 C64.66168,25.3603448 63.7801748,25.0797277 63.3523933,24.8751219 C63.4561621,24.2113245 63.4561621,23.5199339 63.4423968,22.9201734 L63.857472,22.9201734 L63.9617702,23.7781641 C64.0247726,24.3112846 65.0524012,24.7980693 66.077912,24.7980693 C67.2484874,24.7980693 68.4031797,24.0962662 68.4031797,22.8306258 C68.4031797,21.6165273 67.4412008,21.274997 66.1181489,21.11933 C64.0771865,20.8886929 63.2756256,20.264463 63.2756256,18.9379093 C63.2756256,16.9574502 65.038636,16.05 66.5962265,16.05 C67.6376203,16.05 68.4158861,16.3826797 68.9479658,16.5878061 C68.8187843,17.2375466 68.7668999,17.7873271 68.7668999,18.3870876 L68.3502365,18.3870876 Z M74.1944964,21.2056633 L74.1124487,20.4294778 C73.9925707,20.1521209 73.280181,19.8582053 72.8591342,19.8582053 C72.0273577,19.8582053 71.0973207,20.264409 71.0973207,21.9295856 C71.0973207,23.9336965 72.1831009,24.7471389 73.3528939,24.7471389 C73.7474104,24.7471389 74.2338006,24.5934542 74.5826259,24.3781921 L74.7034865,24.5680988 L74.4485002,24.9763723 C74.363996,25.1031493 73.6540628,25.4068966 72.7731561,25.4068966 C71.3380593,25.4068966 70.0390535,24.3642207 70.0390535,22.4755027 C70.0390535,21.2941484 70.5804697,20.4791537 71.0742294,20.0998577 C71.3523071,19.8845956 71.7615627,19.6434606 72.0971228,19.4913283 C72.4597046,19.326777 72.8591342,19.2 73.2546333,19.2 C73.9542491,19.2 74.402809,19.4395826 74.7034865,19.6434606 C74.6047346,20.024309 74.5320217,20.6468097 74.5320217,21.2056633 L74.1944964,21.2056633 Z M76.2020873,17.404374 C76.2020873,17.1122541 76.1628979,16.8810576 75.8796892,16.8810576 L75.1617396,16.8810576 L75.1617396,16.5248901 C75.8399773,16.4197061 76.5218727,16.3067114 77.1614435,16.05 L77.2795342,16.1541426 L77.2795342,20.4713724 L77.3030479,20.4713724 L78.2498635,19.6517704 C78.5356848,19.4075561 78.7781365,19.3336149 79.2891661,19.3336149 C80.7909035,19.3336149 81.4059156,20.1631104 81.4059156,21.5554964 L81.4059156,24.0195094 C81.4059156,24.3652627 81.4163661,24.6230155 81.4686186,24.7610044 C81.5234838,24.8760819 81.6598629,24.9281532 81.8793234,24.9401296 L82.4049838,24.9791831 L82.4049838,25.3603448 C82.0825857,25.3478477 81.714728,25.3223328 81.3547081,25.3223328 C80.9936432,25.3223328 80.6242179,25.3478477 80.3279462,25.3603448 L80.3279462,21.7330595 C80.3279462,20.6744504 79.7254746,20.1120805 78.8528576,20.1120805 C78.0711599,20.1120805 77.2795342,20.7895279 77.2795342,21.3144064 L77.2795342,24.0195094 C77.2795342,24.3652627 77.2894622,24.6230155 77.3401471,24.7610044 C77.3929222,24.8760819 77.534004,24.9281532 77.751897,24.9401296 L78.3282423,24.9791831 L78.3282423,25.3603448 C77.8804382,25.3478477 77.368886,25.3223328 76.7387207,25.3223328 C76.1096003,25.3223328 75.5990932,25.3478477 75.149199,25.3603448 L75.149199,24.9791831 L75.7250218,24.9401296 C75.9450049,24.9281532 76.0845191,24.8760819 76.1388617,24.7610044 C76.1869341,24.6230155 76.2020873,24.3652627 76.2020873,24.0195094 L76.2020873,17.404374 Z M82.5138205,22.4348782 C82.5138205,20.5321304 83.7292686,19.2 85.8056809,19.2 C87.4550297,19.2 88.7330646,20.4674639 88.7330646,22.093439 C88.7330646,24.0349867 87.3261743,25.4053997 85.3528463,25.4053997 C83.7292686,25.4566156 82.5138205,24.188117 82.5138205,22.4348782 Z M83.7145422,21.8890928 C83.7145422,23.2217405 84.2031408,24.9873953 85.8556452,24.9873953 C87.029018,24.9873953 87.5328688,23.8332271 87.5328688,22.6526751 C87.5328688,21.0137667 86.7460621,19.6159351 85.5058949,19.6159351 C84.1421317,19.6159351 83.7145422,20.709058 83.7145422,21.8890928 Z M89.7281436,22.4348782 C89.7281436,20.5321304 90.9432834,19.2 93.0223239,19.2 C94.6691511,19.2 95.9473877,20.4674639 95.9473877,22.093439 C95.9473877,24.0349867 94.54138,25.4053997 92.5664493,25.4053997 C90.9432834,25.4566156 89.7281436,24.188117 89.7281436,22.4348782 Z M90.9275092,21.8890928 C90.9275092,23.2217405 91.4201903,24.9873953 93.0696465,24.9873953 C94.244825,24.9873953 94.7459189,23.8332271 94.7459189,22.6526751 C94.7459189,21.0137667 93.9608892,19.6159351 92.7220882,19.6159351 C91.3560418,19.6159351 90.9275092,20.709058 90.9275092,21.8890928 Z M96.9233706,17.404374 C96.9233706,17.1122541 96.8873831,16.8810576 96.612155,16.8810576 L95.916735,16.8810576 L95.916735,16.5248901 C96.5756606,16.4197061 97.2340794,16.3067114 97.8554969,16.05 L97.9670074,16.1541426 L97.9670074,24.0195094 C97.9670074,24.3652627 97.979679,24.6230155 98.0298588,24.7610044 C98.0790247,24.8760819 98.2148648,24.9281532 98.4297759,24.9401296 L99,24.9791831 L99,25.3603448 C98.5519306,25.3478477 98.0557089,25.3223328 97.4474699,25.3223328 C96.8351759,25.3223328 96.339968,25.3478477 95.890378,25.3603448 L95.890378,24.9791831 L96.4621227,24.9401296 C96.6744995,24.9281532 96.8118601,24.8760819 96.8600124,24.7610044 C96.9106989,24.6230155 96.9233706,24.3652627 96.9233706,24.0195094 L96.9233706,17.404374 Z M15.0298398,0 C23.3185373,0 30.0601979,6.72931034 30.0601979,15.0005172 C30.0601979,23.2706897 23.3185373,30 15.0298398,30 C6.74217883,30 0,23.2706897 0,15.0005172 C0,6.72931034 6.74217883,0 15.0298398,0 Z M15.0298398,29.6089655 C23.1013821,29.6089655 29.6678672,23.0565517 29.6678672,15.0005172 C29.6678672,6.94603448 23.1013821,0.392068966 15.0298398,0.392068966 C6.95881583,0.392068966 0.392848916,6.94603448 0.392848916,15.0005172 C0.392848916,23.0565517 6.95881583,29.6089655 15.0298398,29.6089655 Z M2.14283164,15.0517241 C2.11325624,15.0517241 2.08368085,15.0503634 2.05362843,15.0490026 C1.38675091,15.0095405 1.01371929,14.6013114 1.05522025,13.9599381 C1.06380665,13.8220474 1.10483059,13.6669203 1.16493543,13.5449052 L1.18735549,13.5 L1.66008483,13.5662238 L1.60045701,13.6542199 C1.51220784,13.7794101 1.49408098,13.8914463 1.48692565,13.99305 C1.46736772,14.3046649 1.69729259,14.5278301 2.05982972,14.5496024 C2.41568854,14.5727353 2.66851048,14.377239 2.6899765,14.0574595 C2.6985629,13.9290941 2.67757391,13.7744207 2.64322829,13.701393 L2.59791115,13.6079539 L3.07779582,13.6115826 L3.08829032,13.6660132 C3.12072785,13.830212 3.12979128,13.9635668 3.12311297,14.0842212 C3.08018094,14.6983792 2.72432212,15.0517241 2.14283164,15.0517241 Z M2.42054474,12.3621039 C1.81255186,12.1785505 1.53537166,11.6912363 1.70006606,11.0882037 C1.82584132,10.6193446 2.15143314,10.35 2.59330774,10.35 C2.70674279,10.35 2.82682257,10.3679563 2.95022472,10.4048665 C3.25920471,10.4966432 3.49177029,10.6707196 3.61896942,10.9146261 C3.73620146,11.1330945 3.75803415,11.3989476 3.68161974,11.6797642 C3.55442061,12.1496209 3.23025266,12.4189655 2.79075118,12.4189655 C2.67304451,12.4189655 2.5482185,12.3995129 2.42054474,12.3621039 Z M2.11441249,11.2114039 C2.024234,11.5435956 2.29951571,11.7530858 2.56245721,11.8313953 C2.65453419,11.8593273 2.74281419,11.8732933 2.82492408,11.8732933 C2.98771999,11.8732933 3.19513052,11.8189256 3.26679869,11.5550677 C3.29812385,11.4378529 3.289106,11.3321102 3.23879589,11.2378396 C3.16807697,11.1041649 3.0100273,10.9929355 2.80831225,10.9325824 C2.72477849,10.9076431 2.63982086,10.8941758 2.56198258,10.8941758 C2.39633893,10.8941758 2.18465679,10.9490423 2.11441249,11.2114039 Z M4.78973002,9.85216259 L4.54241644,10.3189655 L2.70537117,9.34036065 L2.94575997,8.88888706 C3.10404066,8.58922331 3.28260106,8.25 3.61894753,8.25 C3.71193744,8.25 3.81234675,8.27868069 3.91671308,8.3330751 C4.10269289,8.43246852 4.20458609,8.61642052 4.19667205,8.81273488 C4.24811328,8.80037252 4.3158772,8.79740555 4.37671634,8.8023505 L5.29672286,8.89828246 L5.02368866,9.41404035 L4.33121064,9.3265148 C4.22140341,9.31316345 4.16996219,9.30179007 4.10318752,9.42887519 L4.08043467,9.47288521 L4.78973002,9.85216259 Z M3.70847505,9.21525351 C3.75200224,9.13217841 3.80937899,9.01251071 3.78266912,8.92795213 C3.77030344,8.88888706 3.74062581,8.85674491 3.69066847,8.8295477 C3.54772122,8.75438452 3.4581937,8.88245863 3.37410709,9.03723545 L3.34838647,9.08421243 L3.68176518,9.262725 L3.70847505,9.21525351 Z M5.45989246,7.90281476 L5.14666781,8.2862069 L3.60716155,6.98972342 L3.96791649,6.54742216 L5.25266037,6.84921068 L4.34578234,6.08484072 L4.65900699,5.7 L6.19851324,6.9974492 L5.84013482,7.43637043 L4.55301443,7.1384448 L5.45989246,7.90281476 Z M8.30269082,5.32466713 L7.18901068,6.1862069 L5.71133913,4.45889376 L6.82001021,3.6 L7.13947668,3.97414534 L6.49108219,4.475299 L6.72650783,4.75207129 L7.32035926,4.29166614 L7.64205197,4.66528228 L7.0459743,5.12462903 L7.32982081,5.45696746 L7.98322435,4.9515802 L8.30269082,5.32466713 Z M9.88859805,4.59842396 L8.80916936,5.21896552 L7.8155167,3.4101634 L8.26463614,3.15 L9.04384872,4.56831017 L9.67174854,4.20645102 L9.88859805,4.59842396 Z M11.9927756,3.74999521 L10.6906972,4.16896552 L9.91969427,2.2740117 L10.4610138,2.1 L11.0659546,3.58509156 L11.8245568,3.34061232 L11.9927756,3.74999521 Z M14.1003769,3.11896552 C13.5556072,3.11896552 13.2447147,2.87721139 13.1999779,2.41994003 L13.0759606,1.18258996 L13.6779255,1.14182909 L13.7889181,2.26626687 C13.827992,2.64717016 14.0205302,2.69121064 14.1621023,2.69121064 C14.1756933,2.69121064 14.1904168,2.6898051 14.2057066,2.6898051 C14.3778583,2.67715517 14.5698302,2.6125 14.53019,2.21566717 L14.4180648,1.09076087 L15.0200297,1.05 L15.1434806,2.28735007 C15.1683973,2.52723013 15.1095033,2.72025862 14.9684974,2.8594078 C14.8184309,3.00464768 14.5760594,3.08991754 14.2464794,3.11287481 C14.1972122,3.11755997 14.1485114,3.11896552 14.1003769,3.11896552 Z M16.3332897,2.08113492 L16.1617422,3.45430755 L15.6310334,3.37730722 L15.9233379,1.05 L16.5307507,1.1381598 L17.0008219,2.60395603 L17.1728877,1.23134137 L17.7041148,1.3083417 L17.4107737,3.6362069 L16.8038792,3.54748912 L16.3332897,2.08113492 Z M19.2226468,1.6536455 L18.6501813,3.56896552 L18.1861062,3.41722866 L18.759938,1.5 L19.2226468,1.6536455 Z M22.3633651,3.04454601 L20.8038448,4.6862069 L20.2902837,4.41250919 L20.5996101,2.1 L21.1037525,2.37212171 L20.8806807,3.87509508 L21.8874784,2.78976024 L22.3633651,3.04454601 Z M22.9356855,6.1862069 L21.7932677,5.34750833 L23.2478154,3.6 L24.3846194,4.43553566 L24.0696826,4.81139491 L23.4038804,4.32430662 L23.1714671,4.60211564 L23.7805695,5.05072185 L23.4667555,5.42921686 L22.8582145,4.98061065 L22.5780835,5.31693352 L23.2494996,5.80982049 L22.9356855,6.1862069 Z M23.8414004,6.87104875 L23.4465501,6.47561034 L25.216665,5.1 L25.6031261,5.49048305 C25.8984249,5.7883007 26.3039014,6.19810969 25.7971956,6.59305257 C25.6227008,6.72833414 25.3794149,6.76401279 25.1780748,6.68522243 C25.1674485,6.7600485 25.1327733,6.82545936 25.1171135,6.85469604 L24.6467607,7.6862069 L24.2105239,7.2466657 L24.5807659,6.6297223 C24.6529128,6.50583808 24.6501164,6.46768175 24.5623097,6.37898065 L24.5242788,6.3393377 L23.8414004,6.87104875 Z M25.2261727,5.79424715 L24.906825,6.04399773 L24.9465337,6.08512729 C25.0259512,6.16490872 25.1299769,6.25658304 25.2312062,6.25658304 C25.2742706,6.25658304 25.317335,6.23874371 25.3609587,6.20455167 C25.4068195,6.16986409 25.4291906,6.13567205 25.4308685,6.09850678 C25.4381391,6.01872535 25.351451,5.92209566 25.267,5.83537671 L25.2261727,5.79424715 Z M25.9238383,9.23616511 C26.0257299,9.17560193 26.0108592,9.04541937 25.9756102,8.82184499 C25.9326505,8.54053748 25.8753709,8.15338589 26.2713713,7.91283117 C26.6591102,7.67793657 27.0738366,7.81830732 27.3255365,8.25470187 C27.4274281,8.43356138 27.4935199,8.60166668 27.5276674,8.76977197 L27.5408858,8.83542926 L27.0584152,9.06013566 L27.0446461,8.94919749 C27.02592,8.80599668 26.9818588,8.66675795 26.9146654,8.54959365 C26.8887794,8.5060108 26.8177307,8.40299678 26.7119837,8.40299678 C26.6761839,8.40299678 26.635978,8.41375099 26.5952214,8.43865548 C26.5131573,8.48903047 26.5285788,8.61525094 26.5616247,8.82014696 C26.6073382,9.10937863 26.6723286,9.50615241 26.2620083,9.75463128 C26.1369845,9.83160878 26.0125115,9.86896552 25.8896908,9.86896552 C25.6231203,9.86896552 25.372522,9.68897399 25.1836094,9.36068755 C25.071804,9.16541373 25.0393089,9.05390954 24.9869861,8.87052195 L24.9495341,8.74826355 L25.4793705,8.49638861 L25.4832259,8.62091105 C25.4892843,8.79128039 25.5305917,8.95032951 25.602742,9.077116 C25.6677323,9.18918619 25.8103806,9.30521847 25.9238383,9.23616511 Z M26.1955221,10.8517241 L26.0016229,10.2580105 L27.8803227,9.3 L28.0747042,9.89371362 L26.1955221,10.8517241 Z M28.2539744,11.3888524 L28.1037593,10.898066 L28.602226,10.8 L29.0438698,12.253202 L28.5470909,12.3517241 L28.3974383,11.8609378 L26.5954193,12.2217296 L26.4525181,11.7478197 L28.2539744,11.3888524 Z M27.0537117,14.3895282 L27.8424566,14.3428179 L29.020322,13.5 L29.0527885,14.1356674 L28.3643078,14.5946478 L29.0981461,14.9815316 L29.126793,15.5689655 L27.8711035,14.8835414 L27.082836,14.9307595 L27.0537117,14.3895282 Z M2.9234776,19.1017241 L2.72292046,18.4416585 L1.81931739,18.6898308 L1.65328238,18.1556646 L3.8709183,17.55 L4.24463407,18.7763543 L3.765708,18.9074348 L3.55419145,18.2157648 L3.20184653,18.3121323 L3.4018557,18.9706436 L2.9234776,19.1017241 Z M4.73434028,20.9803963 C4.65078335,21.2311211 4.4572334,21.4395726 4.17540578,21.5819415 C3.99649009,21.672319 3.81851855,21.7189655 3.64857225,21.7189655 C3.29074088,21.7189655 2.99805559,21.5168308 2.82338856,21.1519193 C2.69734505,20.8905047 2.67138103,20.6276324 2.74974516,20.3939141 C2.83188587,20.1431893 3.02874033,19.9337661 3.31906526,19.7860522 C3.49986924,19.6961606 3.67689664,19.65 3.84495464,19.65 C4.1942887,19.65 4.48602985,19.8516488 4.66116895,20.2214193 C4.78721246,20.4818621 4.81176026,20.7437627 4.73434028,20.9803963 Z M3.94456206,21.0979843 C4.12394982,21.0090645 4.25424198,20.8739841 4.30192136,20.732101 C4.33543855,20.629576 4.32788538,20.5241355 4.27595734,20.4167514 C4.20231395,20.2598055 4.07438215,20.1801177 3.89782683,20.1801177 C3.78830588,20.1801177 3.66745518,20.2112154 3.55038106,20.2700094 C3.36155184,20.3657318 3.22701102,20.5003264 3.18027578,20.6417235 C3.1467586,20.742305 3.15620006,20.8487172 3.20765602,20.9565872 C3.28460393,21.1154767 3.40970329,21.1961363 3.58200995,21.1961363 C3.69294712,21.1961363 3.81804648,21.1621232 3.94456206,21.0979843 Z M6.44625434,22.7636593 L6.79970684,23.2184304 L5.70669055,24.1080122 C5.51969259,24.2596025 5.3353284,24.3362069 5.155705,24.3362069 C4.91339777,24.3362069 4.68267916,24.1970243 4.46776318,23.919738 C4.28655952,23.6872276 4.19911822,23.463888 4.20912656,23.2540352 C4.21860815,23.0290773 4.34028851,22.8230007 4.56731985,22.6374239 L5.65928262,21.75 L6.01220836,22.2031526 L5.02085576,23.0107354 C4.8617758,23.1412865 4.77486125,23.2615878 4.76116563,23.3748759 C4.75168404,23.4530987 4.77802178,23.5318609 4.84123236,23.6133205 C4.99504477,23.8118445 5.18625678,23.7913448 5.45384823,23.572321 L6.44625434,22.7636593 Z M7.9145907,24.5866886 L8.30269082,24.8966743 L7.01689827,26.4362069 L6.5743195,26.0799124 L6.85972977,24.7898804 L6.10088558,25.6981007 L5.71133913,25.3890601 L6.99713168,23.85 L7.44501367,24.2072396 L7.15622862,25.4934912 L7.9145907,24.5866886 Z M9.7993619,25.6498501 C10.4609533,26.0445057 10.6477227,26.5934959 10.3568827,27.2802849 C10.1724362,27.7162801 9.90622006,27.9362069 9.56799076,27.9362069 C9.37425228,27.9362069 9.16285898,27.8667563 8.92033742,27.7212409 L8.41671029,27.4230444 L9.29619937,25.35 L9.7993619,25.6498501 Z M9.89599884,27.0046874 C9.96801194,26.8343681 9.98287917,26.6574345 9.9382775,26.4953832 C9.89553424,26.3410486 9.7984327,26.2109666 9.67299052,26.1349017 L9.55265894,26.0621439 L9.05367782,27.2417012 L9.17447399,27.311703 C9.2492747,27.3580034 9.33197362,27.3817047 9.41560174,27.3817047 C9.61956144,27.3817047 9.79471589,27.2450084 9.89599884,27.0046874 Z M10.9717831,28.6199459 L11.596824,26.4 L13.0448644,26.7651694 L12.9075055,27.24442 L12.0602662,27.0320869 L11.9609984,27.3857935 L12.7378268,27.5822972 L12.6010449,28.0615479 L11.8247937,27.8650442 L11.7059032,28.2908022 L12.5600681,28.5069562 L12.4250177,28.9862069 L10.9717831,28.6199459 Z M14.3327354,26.8843136 C14.8062591,26.9075115 15.1397264,27.0196349 15.3509225,27.2240666 C15.5348853,27.4033673 15.6165848,27.6517785 15.5971326,27.9654339 C15.5554491,28.5975775 15.1363918,28.9189655 14.3532992,28.9189655 C14.3021675,28.9189655 14.2510358,28.9175156 14.1993484,28.9150992 L13.5268558,28.8812689 L13.6574639,26.85 L14.3327354,26.8843136 Z M14.3121715,28.4786881 C14.6161826,28.49512 14.9563194,28.3254851 14.9829968,27.9325701 C15.0068953,27.5565703 14.7012168,27.3419895 14.3860901,27.327974 L14.2276931,27.3197581 L14.1509956,28.4728886 L14.3121715,28.4786881 Z M17.030661,26.5243369 L17.5454074,26.4 L18.7562035,28.4789125 L18.1952807,28.6187224 L17.9449555,28.1700044 L17.2882772,28.3335765 L17.2182834,28.8557913 L16.6831222,28.9862069 L17.030661,26.5243369 Z M17.3524383,27.8025199 L17.6970607,27.7185234 L17.4175714,27.1952034 L17.3524383,27.8025199 Z M19.238195,27.5884061 L19.6173071,27.45 L19.7564653,27.8307107 L19.3750966,27.9672414 L19.238195,27.5884061 Z M20.1811937,25.587768 C20.8248909,25.1688157 21.3110045,25.3066362 21.6146526,25.9765206 C21.9215262,26.6502485 21.748737,27.2031777 21.104579,27.6182864 L20.6143185,27.9362069 L19.6890901,25.9034922 L20.1811937,25.587768 Z M20.9668085,27.1389347 C21.1958117,26.9917798 21.3377292,26.6414632 21.1667831,26.2647905 C21.0635704,26.0413127 20.8921635,25.9078849 20.6967966,25.9078849 C20.6087893,25.9078849 20.520782,25.9364373 20.4429117,25.9886005 L20.3254151,26.0632761 L20.8502334,27.2163557 L20.9668085,27.1389347 Z M22.3944613,26.0125555 L23.006994,25.8 L23.431002,26.1057211 L22.8219221,26.3172414 L22.3944613,26.0125555 Z M23.5492159,23.5951952 L23.8967426,23.25 L25.5196315,24.901533 L25.0985368,25.3189655 L23.9966633,24.1951511 L23.9549382,24.5750864 L23.4465501,24.5050548 L23.5492159,23.5951952 Z M26.1643795,22.4170581 C26.3087676,22.5317549 26.3923863,22.670955 26.4152356,22.8325732 C26.4424603,23.0223443 26.3792601,23.2308839 26.2368166,23.4399448 C26.0661761,23.6839361 25.8615047,23.8189655 25.6553749,23.8189655 C25.5333499,23.8189655 25.4137556,23.7725655 25.2995091,23.680808 C25.1400502,23.5577697 25.0690715,23.3784256 25.0812254,23.1391264 C24.9042649,23.2069018 24.720012,23.181877 24.5785408,23.0692657 C24.2941399,22.8419575 24.2717768,22.4806627 24.519716,22.1219745 C24.7681414,21.7601583 25.1084501,21.6480683 25.3631955,21.8487877 C25.4886236,21.947844 25.593147,22.1324015 25.5892577,22.34824 C25.8021938,22.260132 25.9927667,22.28255 26.1643795,22.4170581 Z M25.893591,23.1678006 C25.9300526,23.114623 25.9475542,23.0557106 25.9397757,23.0035757 C25.9324834,22.9545689 25.9081756,22.9123396 25.8649078,22.8784519 C25.7735106,22.8044204 25.6665564,22.8226676 25.5187652,22.924852 C25.4973744,23.0734365 25.5231406,23.1636298 25.6043285,23.2282771 C25.6937811,23.2981379 25.8240708,23.268421 25.893591,23.1678006 Z M25.1915827,22.5771122 C25.2042227,22.4926537 25.1784565,22.3789996 25.1167147,22.3289501 C25.0807392,22.3002759 25.0418468,22.2851568 25.0078159,22.2851568 C24.9606589,22.2851568 24.9178772,22.3101815 24.8833602,22.360231 C24.8386339,22.4253997 24.7885599,22.558865 24.889194,22.6401954 C24.9144741,22.6594854 24.9426711,22.6678269 24.9747574,22.6678269 C25.0418468,22.6678269 25.1181732,22.626119 25.1915827,22.5771122 Z M27.0067312,20.2001169 C27.4480705,20.4422998 27.5853316,20.8384497 27.3804419,21.2872005 C27.2491923,21.5732174 27.0483102,21.7189655 26.7808015,21.7189655 C26.6049671,21.7189655 26.404085,21.6554062 26.1691382,21.5260959 C25.8991247,21.3803477 25.5524654,21.1250146 25.4382481,20.7513296 C25.3726233,20.5376388 25.3926614,20.316277 25.4963587,20.0861485 C25.5634863,19.9404004 25.6486483,19.8121859 25.7563531,19.6971216 L25.799936,19.65 L26.1876734,19.9551943 L26.1165381,20.0214933 C26.032879,20.1014904 25.9637476,20.177652 25.9121494,20.2932642 C25.8089532,20.5179135 25.927178,20.7009205 26.0589286,20.8192724 C26.0489095,20.7162624 26.0699495,20.6099649 26.118542,20.5020237 C26.2938754,20.118476 26.6415366,19.9995763 27.0067312,20.2001169 Z M26.987695,21.0713179 C27.0067312,21.0285798 27.0112397,20.9880333 26.9972131,20.9452951 C26.976674,20.8757086 26.9110492,20.8061222 26.8213786,20.755713 C26.7532491,20.719002 26.6866224,20.6981809 26.6295137,20.6981809 C26.5538699,20.6981809 26.5027727,20.7321523 26.4707117,20.8017387 C26.4501727,20.8488603 26.4456641,20.8915985 26.4586889,20.9343366 C26.4797289,21.005019 26.5498623,21.0757013 26.6540604,21.1321376 C26.7146757,21.1677528 26.7742891,21.1836426 26.8253863,21.1836426 C26.9010301,21.1836426 26.9541311,21.1469316 26.987695,21.0713179 Z M27.5936927,17.9457099 C27.7784285,18.0115685 27.9232466,18.1510995 28.0040105,18.3419779 C28.0884876,18.5445769 28.0977708,18.797407 28.0290751,19.072004 C27.9942631,19.2182325 27.9278882,19.4012972 27.8526942,19.5592463 L27.8253087,19.6189655 L27.3699675,19.4370171 L27.432165,19.3471591 C27.4966832,19.2511618 27.5746622,19.1361883 27.6136516,18.9787973 C27.6336105,18.89173 27.6851323,18.6048543 27.4632637,18.5233682 C27.2543916,18.4502539 27.1541329,18.7265253 27.1267475,18.8392663 C27.096577,18.959263 27.0826522,19.0792596 27.0835806,19.2059538 L27.0840447,19.3198111 L26.0016229,18.905125 L26.3358183,17.55 L26.7261771,17.6884147 L26.5270523,18.495462 L26.7558834,18.5842037 C26.7600608,18.5490419 26.7679515,18.5099732 26.7786272,18.4697883 C26.8890974,18.0171498 27.2037981,17.8056208 27.5936927,17.9457099 Z M4.05805675,15.0175862 C4.05805675,8.97 8.98680766,4.05 15.0469427,4.05 C21.1070778,4.05 26.036347,8.97 26.036347,15.0175862 C26.036347,21.0672414 21.1070778,25.9872414 15.0469427,25.9872414 C8.98680766,25.9872414 4.05805675,21.0672414 4.05805675,15.0175862 Z M15.0469427,4.43017241 C9.19618888,4.43017241 4.43794891,9.18103448 4.43794891,15.0175862 C4.43794891,20.8562069 9.19618888,25.6060345 15.0469427,25.6060345 C20.8971783,25.6060345 25.6564548,20.8562069 25.6564548,15.0175862 C25.6564548,9.18103448 20.8971783,4.43017241 15.0469427,4.43017241 Z M14.5016233,19.2025204 L14.5016233,17.9960796 C14.5001854,17.9961631 14.4987473,17.996248 14.4973092,17.9963342 L14.2599851,18.0186063 C14.0964027,18.0331514 13.95567,18.0476964 13.8310359,18.0499691 L13.0879047,18.0672414 L13.0759606,17.6240714 L13.8201304,17.6063446 C13.9307432,17.604981 14.0590125,17.591345 14.2054576,17.577709 L14.4536873,17.5554369 C14.4699505,17.554289 14.4859487,17.553286 14.5016233,17.5524645 L14.5016233,16.4969701 C14.41778,16.5049324 14.3388904,16.5124413 14.2639823,16.5186507 C14.1001533,16.5340907 13.9582376,16.5477143 13.8340614,16.5499849 L13.0879609,16.5672414 L13.0759606,16.1235673 L13.8231047,16.107219 C13.9358024,16.1063107 14.0620656,16.0931413 14.2091987,16.0795177 C14.287461,16.0722518 14.3709408,16.0636236 14.4606816,16.0563577 C14.4744058,16.0552051 14.4880744,16.0542459 14.5016233,16.0534522 L14.5016233,15.8383707 C14.4791867,15.8316228 14.4598097,15.8222794 14.4322738,15.8160506 C14.4322738,15.8160506 14.1645644,15.7631051 13.8744184,15.7952876 C13.6908462,15.811898 13.5276709,15.8290274 13.3741842,15.8456377 C13.0942366,15.8767822 12.8535531,15.9032549 12.6337764,15.9084456 C12.3747357,15.9141554 12.1677071,15.9151936 11.9994326,15.9141554 C11.9795456,15.9141554 11.9601685,15.9141554 11.9418113,15.9141554 L11.9418113,20.3838965 C12.0677622,20.387011 12.2350169,20.3880491 12.4216486,20.3838965 C12.8265272,20.3740341 13.1029053,20.3506758 13.369085,20.323684 C13.6398539,20.3003257 13.8943054,20.2764483 14.2354437,20.2764483 C14.240033,20.2764483 14.2456421,20.2764483 14.2507414,20.2764483 C14.3501763,20.2764483 14.4292143,20.2946159 14.5016233,20.3200505 L14.5016233,19.6474095 L14.2658244,19.6673363 C14.100319,19.6827615 13.9588302,19.696372 13.8350927,19.7000014 C13.5750873,19.7045383 13.1965655,19.714973 13.0858805,19.7172414 L13.0759606,19.2753546 C13.1866456,19.2726325 13.5615128,19.2631052 13.7980236,19.2563 C13.9353357,19.2558463 14.06325,19.2422358 14.2104819,19.2286253 L14.4610895,19.2054875 C14.4744326,19.2042956 14.4879842,19.2033107 14.5016233,19.2025204 Z M11.277382,23.2346476 C9.01230531,21.4137381 7.8155167,19.3078573 7.8155167,17.1422831 L7.81653655,7.80103815 L21.8072861,7.8 L21.8088158,17.3057912 C21.8088158,19.3867565 20.6130471,21.4360583 18.3520497,23.2356858 C16.6723643,24.5743761 15.018685,25.2979644 14.9488256,25.330147 L14.820325,25.3862069 L14.6918245,25.330147 C14.6214552,25.3010789 12.9621667,24.5868339 11.277382,23.2346476 Z M8.47790631,13.9697065 L8.47790631,17.1422831 C8.47790631,21.157835 13.0406948,23.7651407 14.5016233,24.4965151 L14.5016233,20.9444958 C14.490405,20.931519 14.4781669,20.917504 14.4694982,20.9066034 C14.4011686,20.8199182 14.3598648,20.7804686 14.2354437,20.7825449 C13.9172519,20.7825449 13.6837073,20.8027887 13.4139582,20.8282233 C13.1518579,20.8515816 12.8561027,20.8801307 12.4333768,20.8899931 C12.0152402,20.8982983 11.692969,20.8816879 11.6786912,20.8801307 L11.4441267,20.8671538 L11.4441267,19.4225726 L10.8495569,19.4225726 L10.8495569,18.7197472 L11.4441267,18.7197472 L11.4441267,17.4205065 L10.8495569,17.4205065 L10.8495569,16.7145666 L11.4441267,16.7145666 L11.4441267,15.416364 L11.6868499,15.4101352 C11.7760864,15.4085779 11.8790908,15.4085779 11.9994326,15.4085779 C12.1661773,15.4085779 12.3681067,15.4085779 12.6225581,15.4023491 C12.821428,15.3976774 13.0529329,15.3727619 13.3221721,15.3436938 C13.4782084,15.3265643 13.6449532,15.3078777 13.824446,15.2917864 C14.1273401,15.2564894 14.4032082,15.2969772 14.5016233,15.3141066 L14.5016233,13.9697065 L8.47790631,13.9697065 Z M8.47841623,8.47583357 L8.47790631,13.294392 L21.1454064,13.294392 L21.1443865,8.47427635 L8.47841623,8.47583357 Z M15.0681475,20.3423706 C15.1533046,20.3039592 15.2532494,20.2764483 15.38124,20.2764483 C15.7437951,20.2748911 15.988558,20.2987685 16.2618765,20.3252412 C16.5285661,20.3506758 16.8044343,20.3740341 17.2093129,20.3838965 C17.3959447,20.3896063 17.5626894,20.387011 17.6896601,20.3838965 L17.6891502,15.9141554 C17.6473366,15.9141554 17.6024634,15.9141554 17.5560604,15.9141554 C17.4015538,15.9141554 17.2179816,15.9141554 16.997695,15.9084456 C16.7779183,15.9032549 16.5372348,15.8767822 16.2577972,15.8466759 C16.1043104,15.8290274 15.9401153,15.811898 15.7621523,15.7968448 C15.4633376,15.7605097 15.1940984,15.8160506 15.1915488,15.8176078 C15.1390267,15.8305846 15.1002726,15.8456377 15.0681475,15.8612099 L15.0681475,20.3423706 Z M21.1459163,17.3057912 L21.1454064,13.9697065 L15.0681475,13.9697065 L15.0681475,15.3281216 C15.0742665,15.3265643 15.0783459,15.3250071 15.084465,15.3229308 C15.104352,15.3182592 15.4363117,15.2492224 15.8116148,15.2928246 C15.9870282,15.3078777 16.1547928,15.3265643 16.3103192,15.3436938 C16.5785385,15.3727619 16.8110633,15.3976774 17.0089133,15.4023491 C17.2633648,15.4085779 17.4632545,15.4065016 17.631529,15.4085779 C17.7523806,15.4080589 17.8548751,15.4080589 17.9441116,15.4101352 L18.185305,15.416364 L18.185305,16.8547164 L18.7370414,16.8547164 L18.7370414,17.55858 L18.1863249,17.55858 L18.1863249,18.8401722 L18.7370414,18.8401722 L18.7370414,19.545593 L18.1868348,19.545593 L18.1868348,20.8671538 L17.9517604,20.8801307 C17.9385024,20.8816879 17.6141916,20.9014127 17.1975847,20.8899931 C16.7758786,20.8801307 16.4785937,20.8515816 16.2170033,20.8282233 C15.9431748,20.8027887 15.7024913,20.7866975 15.3822599,20.7825449 C15.2501899,20.7825449 15.2068464,20.8313378 15.1380069,20.9133514 C15.1181199,20.9356715 15.0951734,20.9611061 15.0681475,20.9875789 L15.0681475,24.5266213 C16.4505479,23.8352156 21.1459163,21.1988418 21.1459163,17.3057912 Z M13.9963744,8.85 L13.9963744,9.11488863 C13.9984659,10.1242996 14.0000345,11.3408252 13.9958515,11.3996893 C13.9921914,11.5076069 13.9833027,11.8340849 13.4693228,12.191085 C13.0295903,12.5001217 12.3252863,12.8996348 12.2960056,12.915986 L12.1705172,12.987931 L12.0460744,12.9121707 C12.0183624,12.8952745 11.3663452,12.4968515 10.9281813,12.191085 C10.5731536,11.9441826 10.3911953,11.6852894 10.3739406,11.3996893 C10.3697577,11.3353748 10.3702805,9.94062171 10.3713263,9.11488863 L10.3713263,8.85 L13.9963744,8.85 Z M13.4860546,11.3844283 C13.4881461,11.3342847 13.488669,11.0132571 13.488669,10.5995731 L10.8800774,10.5995731 C10.8800774,11.011622 10.8806003,11.3261092 10.881646,11.3653519 C10.8884433,11.4683642 11.0087031,11.608439 11.2126219,11.7490589 C11.5252973,11.9687093 11.9665984,12.2450438 12.1788831,12.3785782 C12.402148,12.247769 12.8727297,11.9687093 13.185928,11.7496039 C13.3208281,11.6564024 13.4829174,11.5168726 13.4860546,11.3844283 Z M10.8811232,9.38086734 C10.8806003,9.60160786 10.8806003,9.8381545 10.8806003,10.0687057 L13.488669,10.0687057 C13.4881461,9.83706442 13.4881461,9.60160786 13.4881461,9.38086734 L10.8811232,9.38086734 Z M20.3080606,8.85 L20.308572,9.10898706 C20.3111289,10.1220208 20.3126631,11.3428836 20.3080606,11.3999034 C20.3065265,11.5075482 20.2988557,11.8326143 19.7833813,12.1907199 C19.3415462,12.5008648 18.6337917,12.9010691 18.6051542,12.917056 L18.4808881,12.987931 L18.3602016,12.9138586 C18.3325869,12.896806 17.6785276,12.4976675 17.2412949,12.1907199 C16.8869063,11.9455881 16.7068993,11.6871339 16.6859326,11.4057653 C16.6828643,11.3428836 16.6828643,10.1225537 16.6833757,9.10898706 L16.6833757,8.85 L20.3080606,8.85 Z M18.4282156,9.65200724 L19.8120188,10.6149488 C19.8120188,10.2349946 19.8104847,9.77510602 19.8099733,9.3690399 L17.1814631,9.3690399 C17.1804403,9.76764549 17.1804403,10.217409 17.1804403,10.5904356 L18.4282156,9.65200724 Z M19.8099733,11.3887126 C19.8104847,11.3705942 19.8104847,11.3173047 19.8115074,11.2379033 L18.4384432,10.2845538 L17.1824858,11.2299099 C17.1829972,11.3034494 17.1829972,11.3524757 17.1835086,11.366331 C17.1937363,11.5182061 17.4218132,11.6924629 17.518976,11.7606734 C17.8344995,11.9802263 18.2788916,12.2599962 18.4906043,12.3910884 C18.7135675,12.261062 19.1901767,11.9802263 19.506723,11.7606734 C19.6437737,11.6642194 19.806905,11.5230022 19.8099733,11.3887126 Z M16.2188594,16.4962722 C16.1764884,16.4926328 16.1382511,16.4917229 16.1036308,16.4926328 L16.0819286,16.0504405 C16.1392845,16.0495306 16.2023244,16.0495306 16.2679479,16.0554447 L16.5123565,16.0777363 C16.6601385,16.092294 16.7862182,16.1045772 16.897313,16.105942 L17.6367396,16.1241392 L17.6253718,16.5672414 L16.884395,16.5490442 C16.7624491,16.5463146 16.6213845,16.5344864 16.4581009,16.5185638 L16.2188594,16.4962722 Z M16.8938336,17.606988 C17.0484327,17.6097222 17.2756624,17.6156463 17.4437501,17.6192918 L17.6367396,17.6243045 L17.625845,18.0672414 L17.4302615,18.0622287 C17.2632114,18.0599502 17.0370194,18.0522034 16.8819014,18.0508363 C16.7636175,18.0490135 16.6287323,18.0367097 16.4736144,18.0216717 C16.3932021,18.0143806 16.3070831,18.0057224 16.2142198,17.9984312 C16.1664912,17.9947857 16.1265445,17.9934186 16.090748,17.9947857 L16.0819286,17.5504817 C16.1389954,17.5491146 16.1996937,17.5504817 16.2645424,17.5568614 C16.3548117,17.5627855 16.4445622,17.5714437 16.5275685,17.5801019 C16.6660852,17.5924058 16.7880006,17.6047096 16.8938336,17.606988 Z M16.8961313,19.2585428 L17.1060308,19.2621905 C17.3169668,19.2667502 17.5538164,19.2703979 17.6367396,19.2731336 L17.6268925,19.7172414 C17.5439692,19.7163295 17.3066014,19.7113139 17.093074,19.7062983 L16.8831745,19.7012827 C16.7634541,19.697635 16.6266307,19.6866919 16.4685583,19.6693653 C16.3902994,19.6648057 16.3053031,19.6547745 16.2166789,19.648847 C16.1705528,19.6438314 16.1316825,19.6438314 16.0974767,19.6438314 L16.0819286,19.2010915 C16.1389383,19.1983557 16.2011308,19.2010915 16.2685059,19.2056511 C16.3550571,19.2129466 16.4416082,19.2216098 16.5229767,19.2293612 C16.665501,19.2434961 16.7883311,19.2548951 16.8961313,19.2585428 Z M14.5016233,16.0534522 L14.5016233,16.4969701 C14.5036257,16.4967799 14.5056309,16.4965895 14.507639,16.4963988 C14.5472919,16.4941282 14.5874665,16.4914035 14.6229454,16.4927659 L14.6307716,16.05 C14.5906355,16.05 14.5467944,16.0508062 14.5016233,16.0534522 Z M14.5016233,17.9960796 C14.5380905,17.993962 14.5744482,17.9927496 14.6079221,17.9940615 L14.6307716,17.5508916 C14.5915681,17.5491929 14.5480127,17.5500335 14.5016233,17.5524645 L14.5016233,17.9960796 Z M14.5016233,19.2025204 L14.5016233,19.6474095 L14.5127773,19.6464669 C14.5508905,19.6428375 14.5879595,19.6414764 14.6229402,19.6428375 L14.6307716,19.200497 C14.5894424,19.1994611 14.5450883,19.2000022 14.5016233,19.2025204 Z" id="logo-cornell"></path>
            </g>
        </g>
    </g>
</svg>