<?xml version="1.0" encoding="UTF-8"?>
<svg width="30px" height="30px" viewBox="0 0 30 30" version="1.1" xmlns="http://www.w3.org/2000/svg" xmlns:xlink="http://www.w3.org/1999/xlink">
    <!-- Generator: Sketch 54.1 (76490) - https://sketchapp.com -->
    <title>Artboard Copy 2</title>
    <desc>Created with Sketch.</desc>
    <g id="Artboard-Copy-2" stroke="none" stroke-width="1" fill="none" fill-rule="evenodd">
        <g id="Product-/-Icon-/-Attendance" fill="#2C3B8D" fill-rule="nonzero">
            <path d="M18,12 L18,5 C18.0555556,4.54382326 17.5084534,4 17,4 L13,4 C12.4867648,4 11.9444444,4.54712741 12,5 L12,12 L5,12 C4.54382326,11.9444444 4,12.4915466 4,13 L4,17 C4,17.5132352 4.54712741,18.0555556 5,18 L12,18 L12,25 C11.9444444,25.4561767 12.4915466,26 13,26 L17,26 C17.5132352,26 18.0555556,25.4528726 18,25 L18,18 L25,18 C25.4561767,18.0555556 26,17.5084534 26,17 L26,13 C26,12.4867648 25.4528726,11.9444444 25,12 L18,12 Z" id="Shape"></path>
        </g>
    </g>
</svg>